<mxfile host="Electron" modified="2024-02-12T15:12:22.848Z" agent="Mozilla/5.0 (Windows NT 10.0; Win64; x64) AppleWebKit/537.36 (KHTML, like Gecko) draw.io/22.1.16 Chrome/120.0.6099.109 Electron/28.1.0 Safari/537.36" etag="riA8BPFjsOaCDwQ2E-ha" version="22.1.16" type="device">
  <diagram name="Page-1" id="vxIBfIffDY3lHyvcRWvL">
    <mxGraphModel dx="1084" dy="1184" grid="1" gridSize="10" guides="1" tooltips="1" connect="1" arrows="1" fold="1" page="1" pageScale="1" pageWidth="850" pageHeight="1100" math="0" shadow="0">
      <root>
        <mxCell id="0" />
        <mxCell id="1" parent="0" />
        <mxCell id="OgLwLqIfZ3Epy0qQ25_q-1" value="Account - Sender" style="points=[[0,0],[0.25,0],[0.5,0],[0.75,0],[1,0],[1,0.25],[1,0.5],[1,0.75],[1,1],[0.75,1],[0.5,1],[0.25,1],[0,1],[0,0.75],[0,0.5],[0,0.25]];outlineConnect=0;gradientColor=none;html=1;whiteSpace=wrap;fontSize=12;fontStyle=0;container=1;pointerEvents=0;collapsible=0;recursiveResize=0;shape=mxgraph.aws4.group;grIcon=mxgraph.aws4.group_aws_cloud_alt;strokeColor=#232F3E;fillColor=none;verticalAlign=top;align=left;spacingLeft=30;fontColor=#232F3E;dashed=0;" vertex="1" parent="1">
          <mxGeometry x="130" y="330" width="340" height="360" as="geometry" />
        </mxCell>
        <mxCell id="OgLwLqIfZ3Epy0qQ25_q-4" value="logs" style="edgeStyle=orthogonalEdgeStyle;rounded=0;orthogonalLoop=1;jettySize=auto;html=1;" edge="1" parent="OgLwLqIfZ3Epy0qQ25_q-1" source="OgLwLqIfZ3Epy0qQ25_q-2" target="OgLwLqIfZ3Epy0qQ25_q-3">
          <mxGeometry relative="1" as="geometry" />
        </mxCell>
        <mxCell id="OgLwLqIfZ3Epy0qQ25_q-2" value="CloudWatch Logs" style="sketch=0;outlineConnect=0;fontColor=#232F3E;gradientColor=none;fillColor=#E7157B;strokeColor=none;dashed=0;verticalLabelPosition=bottom;verticalAlign=top;align=center;html=1;fontSize=12;fontStyle=0;aspect=fixed;pointerEvents=1;shape=mxgraph.aws4.cloudwatch_logs;" vertex="1" parent="OgLwLqIfZ3Epy0qQ25_q-1">
          <mxGeometry x="30" y="50" width="78" height="58" as="geometry" />
        </mxCell>
        <mxCell id="OgLwLqIfZ3Epy0qQ25_q-3" value="Subscription Filter" style="sketch=0;points=[[0,0,0],[0.25,0,0],[0.5,0,0],[0.75,0,0],[1,0,0],[0,1,0],[0.25,1,0],[0.5,1,0],[0.75,1,0],[1,1,0],[0,0.25,0],[0,0.5,0],[0,0.75,0],[1,0.25,0],[1,0.5,0],[1,0.75,0]];points=[[0,0,0],[0.25,0,0],[0.5,0,0],[0.75,0,0],[1,0,0],[0,1,0],[0.25,1,0],[0.5,1,0],[0.75,1,0],[1,1,0],[0,0.25,0],[0,0.5,0],[0,0.75,0],[1,0.25,0],[1,0.5,0],[1,0.75,0]];outlineConnect=0;fontColor=#232F3E;fillColor=#E7157B;strokeColor=#ffffff;dashed=0;verticalLabelPosition=bottom;verticalAlign=top;align=center;html=1;fontSize=12;fontStyle=0;aspect=fixed;shape=mxgraph.aws4.resourceIcon;resIcon=mxgraph.aws4.cloudwatch_2;" vertex="1" parent="OgLwLqIfZ3Epy0qQ25_q-1">
          <mxGeometry x="230" y="40" width="78" height="78" as="geometry" />
        </mxCell>
        <mxCell id="OgLwLqIfZ3Epy0qQ25_q-12" value="Can be assumed" style="text;html=1;align=center;verticalAlign=middle;resizable=0;points=[];autosize=1;strokeColor=none;fillColor=none;" vertex="1" parent="OgLwLqIfZ3Epy0qQ25_q-1">
          <mxGeometry x="214" y="287" width="110" height="30" as="geometry" />
        </mxCell>
        <mxCell id="OgLwLqIfZ3Epy0qQ25_q-5" value="Account - Recipient" style="points=[[0,0],[0.25,0],[0.5,0],[0.75,0],[1,0],[1,0.25],[1,0.5],[1,0.75],[1,1],[0.75,1],[0.5,1],[0.25,1],[0,1],[0,0.75],[0,0.5],[0,0.25]];outlineConnect=0;gradientColor=none;html=1;whiteSpace=wrap;fontSize=12;fontStyle=0;container=1;pointerEvents=0;collapsible=0;recursiveResize=0;shape=mxgraph.aws4.group;grIcon=mxgraph.aws4.group_aws_cloud_alt;strokeColor=#232F3E;fillColor=none;verticalAlign=top;align=left;spacingLeft=30;fontColor=#232F3E;dashed=0;" vertex="1" parent="1">
          <mxGeometry x="570" y="330" width="340" height="360" as="geometry" />
        </mxCell>
        <mxCell id="OgLwLqIfZ3Epy0qQ25_q-6" value="logs" style="edgeStyle=orthogonalEdgeStyle;rounded=0;orthogonalLoop=1;jettySize=auto;html=1;entryX=0;entryY=0.5;entryDx=0;entryDy=0;entryPerimeter=0;" edge="1" parent="OgLwLqIfZ3Epy0qQ25_q-5" source="OgLwLqIfZ3Epy0qQ25_q-7" target="OgLwLqIfZ3Epy0qQ25_q-15">
          <mxGeometry relative="1" as="geometry">
            <mxPoint x="230" y="79" as="targetPoint" />
          </mxGeometry>
        </mxCell>
        <mxCell id="OgLwLqIfZ3Epy0qQ25_q-7" value="CloudWatch Logs" style="sketch=0;outlineConnect=0;fontColor=#232F3E;gradientColor=none;fillColor=#E7157B;strokeColor=none;dashed=0;verticalLabelPosition=bottom;verticalAlign=top;align=center;html=1;fontSize=12;fontStyle=0;aspect=fixed;pointerEvents=1;shape=mxgraph.aws4.cloudwatch_logs;" vertex="1" parent="OgLwLqIfZ3Epy0qQ25_q-5">
          <mxGeometry x="30" y="50" width="78" height="58" as="geometry" />
        </mxCell>
        <mxCell id="OgLwLqIfZ3Epy0qQ25_q-16" value="allow PutRecord" style="edgeStyle=orthogonalEdgeStyle;rounded=0;orthogonalLoop=1;jettySize=auto;html=1;dashed=1;" edge="1" parent="OgLwLqIfZ3Epy0qQ25_q-5" source="OgLwLqIfZ3Epy0qQ25_q-10" target="OgLwLqIfZ3Epy0qQ25_q-15">
          <mxGeometry relative="1" as="geometry" />
        </mxCell>
        <mxCell id="OgLwLqIfZ3Epy0qQ25_q-10" value="IAM Role" style="sketch=0;outlineConnect=0;fontColor=#232F3E;gradientColor=none;fillColor=#DD344C;strokeColor=none;dashed=0;verticalLabelPosition=bottom;verticalAlign=top;align=center;html=1;fontSize=12;fontStyle=0;aspect=fixed;pointerEvents=1;shape=mxgraph.aws4.role;" vertex="1" parent="OgLwLqIfZ3Epy0qQ25_q-5">
          <mxGeometry x="20" y="280" width="78" height="44" as="geometry" />
        </mxCell>
        <mxCell id="OgLwLqIfZ3Epy0qQ25_q-11" value="Destination&lt;br&gt;Access Policy" style="sketch=0;outlineConnect=0;fontColor=#232F3E;gradientColor=none;fillColor=#7AA116;strokeColor=none;dashed=0;verticalLabelPosition=middle;verticalAlign=middle;align=left;html=1;fontSize=12;fontStyle=0;aspect=fixed;pointerEvents=1;shape=mxgraph.aws4.policy;labelPosition=right;spacingLeft=5;" vertex="1" parent="OgLwLqIfZ3Epy0qQ25_q-5">
          <mxGeometry x="30" y="210" width="78" height="67" as="geometry" />
        </mxCell>
        <mxCell id="OgLwLqIfZ3Epy0qQ25_q-15" value="Kinesis Data Streams&lt;br&gt;(RecipientStream)" style="sketch=0;points=[[0,0,0],[0.25,0,0],[0.5,0,0],[0.75,0,0],[1,0,0],[0,1,0],[0.25,1,0],[0.5,1,0],[0.75,1,0],[1,1,0],[0,0.25,0],[0,0.5,0],[0,0.75,0],[1,0.25,0],[1,0.5,0],[1,0.75,0]];outlineConnect=0;fontColor=#232F3E;fillColor=#8C4FFF;strokeColor=#ffffff;dashed=0;verticalLabelPosition=top;verticalAlign=bottom;align=center;html=1;fontSize=12;fontStyle=0;aspect=fixed;shape=mxgraph.aws4.resourceIcon;resIcon=mxgraph.aws4.kinesis_data_streams;labelPosition=center;" vertex="1" parent="OgLwLqIfZ3Epy0qQ25_q-5">
          <mxGeometry x="230" y="40" width="78" height="78" as="geometry" />
        </mxCell>
        <mxCell id="OgLwLqIfZ3Epy0qQ25_q-9" style="edgeStyle=orthogonalEdgeStyle;rounded=0;orthogonalLoop=1;jettySize=auto;html=1;" edge="1" parent="1" source="OgLwLqIfZ3Epy0qQ25_q-3" target="OgLwLqIfZ3Epy0qQ25_q-7">
          <mxGeometry relative="1" as="geometry" />
        </mxCell>
        <mxCell id="OgLwLqIfZ3Epy0qQ25_q-13" style="edgeStyle=orthogonalEdgeStyle;rounded=0;orthogonalLoop=1;jettySize=auto;html=1;dashed=1;" edge="1" parent="1" source="OgLwLqIfZ3Epy0qQ25_q-12" target="OgLwLqIfZ3Epy0qQ25_q-10">
          <mxGeometry relative="1" as="geometry" />
        </mxCell>
      </root>
    </mxGraphModel>
  </diagram>
</mxfile>
